<svg width="205" height="56" viewBox="0 0 205 56" fill="none" xmlns="http://www.w3.org/2000/svg">
    <polygon fill="#2221ed" points="0 34.36 34.9 55.97 59.43 40.59 24.42 19.56 0 34.36"/>
    <polygon fill="#2221ed" points="0 21.46 0 34.36 13.02 26.52 0 21.46"/>
    <polygon fill="#2261ed" points="0 21.46 34.9 42.97 59.43 27.59 24.25 6.46 0 21.46"/>
    <path fill="aqua" d="M13.11,16c1.33,4.61,4.56,6.33,11.69,7.17,7.12,1.24,11.29,3.69,13,8L62.29,15.72c-2.09-5.4-7.37-7-13.49-8.1C42.47,6.37,38.41,5.07,37.54,.85Z" transform="translate(-2.86 -0.85)"/>
    <polygon fill="#fff" points="36 27.79 40.22 25.14 39.4 24.64 35.3 27.29 36 27.79"/>
    <polygon fill="#fff" points="36 40.33 40.22 37.68 39.4 37.18 35.3 39.82 36 40.33"/>
    <polygon fill="#fff" points="36 53.39 40.22 50.74 39.4 50.24 35.3 52.89 36 53.39"/>
    <text fill="#fff" font-size="41px" font-family="Calibri, Calibri" letter-spacing="-0.02em" x="64.06" y="41.94">BitLayer</text>
    <defs>
        <clipPath id="clip0_426_1696">
            <rect width="205" height="56"/>
        </clipPath>
    </defs>
</svg>
