<svg id="Layer_1" data-name="Layer 1" xmlns="http://www.w3.org/2000/svg" xmlns:xlink="http://www.w3.org/1999/xlink" viewBox="0 0 69.51 65.46"><defs><style>.cls-1{fill:url(#linear-gradient);}.cls-2{fill:#1531ed;}.cls-3{fill:url(#linear-gradient-2);}.cls-4{fill:url(#linear-gradient-3);}.cls-5{fill:#fff;}</style><linearGradient id="linear-gradient" y1="44.17" x2="69.51" y2="44.17" gradientUnits="userSpaceOnUse"><stop offset="0" stop-color="#1531ed"/><stop offset="0.28" stop-color="#1634ed"/><stop offset="0.48" stop-color="#1a3ded"/><stop offset="0.64" stop-color="#214ced"/><stop offset="0.79" stop-color="#2a62ed"/><stop offset="0.93" stop-color="#367ded"/><stop offset="1" stop-color="#3d8eed"/></linearGradient><linearGradient id="linear-gradient-2" y1="28.91" x2="69.51" y2="28.91" gradientUnits="userSpaceOnUse"><stop offset="0" stop-color="#3d59ed"/><stop offset="0.21" stop-color="#3d5ced"/><stop offset="0.38" stop-color="#3d67ed"/><stop offset="0.54" stop-color="#3d78ed"/><stop offset="0.69" stop-color="#3d90ed"/><stop offset="0.83" stop-color="#3dafed"/><stop offset="0.97" stop-color="#3dd5ed"/><stop offset="1" stop-color="#3ddeed"/></linearGradient><linearGradient id="linear-gradient-3" x1="17.9" y1="26.46" x2="75.42" y2="26.46" gradientUnits="userSpaceOnUse"><stop offset="0" stop-color="#3da5ed"/><stop offset="1" stop-color="#3dffed"/></linearGradient></defs><title>safari-pinned-tab-bitlayericon</title><polygon class="cls-1" points="0 40.19 40.82 65.46 69.5 47.47 28.56 22.88 0 40.19"/><polygon class="cls-2" points="0 25.1 0 40.19 15.22 31.02 0 25.1"/><polygon class="cls-3" points="0 25.1 40.82 50.26 69.5 32.27 28.37 7.56 0 25.1"/><path class="cls-4" d="M17.9,26.46c1.56,5.4,5.32,7.41,13.67,8.39,8.32,1.45,13.21,4.32,15.16,9.3l28.69-18C73,19.84,66.8,17.91,59.63,16.68c-7.4-1.46-12.14-3-13.16-7.91Z" transform="translate(-5.91 -8.77)"/><polygon class="cls-5" points="42.1 32.5 47.05 29.41 46.09 28.82 41.29 31.92 42.1 32.5"/><polygon class="cls-5" points="42.1 47.16 47.05 44.07 46.09 43.48 41.29 46.58 42.1 47.16"/><polygon class="cls-5" points="42.1 62.44 47.05 59.35 46.09 58.76 41.29 61.86 42.1 62.44"/></svg>